<svg width="111" height="110" viewBox="0 0 111 110" fill="none" xmlns="http://www.w3.org/2000/svg">
<g id="TELE">
<mask id="mask0_12_20" style="mask-type:luminance" maskUnits="userSpaceOnUse" x="0" y="0" width="111" height="110">
<g id="clip0_81_3">
<path id="Vector" d="M110.08 0.736816H0.8172V110H110.08V0.736816Z" fill="white"/>
</g>
</mask>
<g mask="url(#mask0_12_20)">
<g id="Group">
<path id="Vector_2" d="M55.4488 110C85.621 110 110.08 85.5406 110.08 55.3684C110.08 25.1961 85.621 0.736816 55.4488 0.736816C25.2765 0.736816 0.8172 25.1961 0.8172 55.3684C0.8172 85.5406 25.2765 110 55.4488 110Z" fill="url(#paint0_linear_12_20)"/>
<path id="Vector_3" d="M37.7981 59.3622L44.2797 77.3022C44.2797 77.3022 45.09 78.9808 45.9577 78.9808C46.8256 78.9808 59.7317 65.5543 59.7317 65.5543L74.084 37.8333L38.0293 54.7312L37.7981 59.3622Z" fill="#C8DAEA"/>
<path id="Vector_4" d="M46.3914 63.9629L45.1472 77.1865C45.1472 77.1865 44.6262 81.2384 48.6772 77.1865C52.7281 73.1347 56.6056 70.0102 56.6056 70.0102" fill="#A9C6D8"/>
<path id="Vector_5" d="M37.915 60.0023L24.5821 55.6581C24.5821 55.6581 22.9886 55.0117 23.5018 53.5456C23.6073 53.2434 23.8204 52.9862 24.4578 52.5441C27.412 50.4849 79.1376 31.8934 79.1376 31.8934C79.1376 31.8934 80.5982 31.4013 81.4594 31.7285C81.6725 31.7944 81.8643 31.916 82.0151 32.0803C82.1659 32.2448 82.2703 32.4461 82.3177 32.6641C82.4108 33.0492 82.4496 33.4453 82.4332 33.841C82.4291 34.1834 82.3878 34.5007 82.3564 34.9982C82.0412 40.0813 72.6138 78.0174 72.6138 78.0174C72.6138 78.0174 72.0497 80.2372 70.0287 80.3133C69.532 80.3293 69.0374 80.2452 68.5738 80.0659C68.1104 79.8866 67.6878 79.616 67.3313 79.2698C63.3655 75.8585 49.6584 66.6468 46.6297 64.6208C46.5612 64.5743 46.5038 64.5137 46.4609 64.443C46.418 64.3722 46.3906 64.2932 46.3811 64.211C46.3387 63.9976 46.5709 63.733 46.5709 63.733C46.5709 63.733 70.4385 42.5178 71.0736 40.2906C71.1227 40.1181 70.937 40.0331 70.6874 40.1086C69.1024 40.6918 41.6217 58.0459 38.5887 59.9613C38.3703 60.0272 38.1397 60.0413 37.915 60.0023Z" fill="white"/>
</g>
</g>
</g>
<defs>
<linearGradient id="paint0_linear_12_20" x1="55.4488" y1="110" x2="55.4488" y2="0.736816" gradientUnits="userSpaceOnUse">
<stop stop-color="#1D93D2"/>
<stop offset="1" stop-color="#38B0E3"/>
</linearGradient>
</defs>
</svg>
