<svg width="110" height="110" viewBox="0 0 110 110" fill="none" xmlns="http://www.w3.org/2000/svg">
<path d="M55.2882 110C85.4603 110 109.92 85.5405 109.92 55.3684C109.92 25.1962 85.4603 0.736816 55.2882 0.736816C25.116 0.736816 0.656616 25.1962 0.656616 55.3684C0.656616 85.5405 25.116 110 55.2882 110Z" fill="#1E1E1D"/>
<mask id="mask0_54_2" style="mask-type:luminance" maskUnits="userSpaceOnUse" x="27" y="28" width="54" height="53">
<path d="M80.6528 28.0527H27.9723V80.7773H80.6528V28.0527Z" fill="white"/>
</mask>
<g mask="url(#mask0_54_2)">
<path d="M59.3295 50.3805L78.9442 28.0527H74.2977L57.2591 47.4356L43.6606 28.0527H27.9723L48.5405 57.3659L27.9723 80.7771H32.6187L50.6003 60.3037L64.9645 80.7771H80.6528M34.2957 31.484H41.4339L74.2942 77.5144H67.1543" fill="white"/>
</g>
</svg>
